<?xml version="1.0" standalone="no"?>
<!DOCTYPE svg PUBLIC "-//W3C//DTD SVG 20010904//EN"
 "http://www.w3.org/TR/2001/REC-SVG-20010904/DTD/svg10.dtd">
<svg version="1.0" xmlns="http://www.w3.org/2000/svg"
 width="332.000000pt" height="332.000000pt" viewBox="0 0 332.000000 332.000000"
 preserveAspectRatio="xMidYMid meet">
<metadata>
Created by potrace 1.11, written by Peter Selinger 2001-2013
</metadata>
<g transform="translate(0.000000,332.000000) scale(0.100000,-0.100000)"
fill="#000000" stroke="none">
<path d="M30 1660 l0 -1640 1635 0 1635 0 0 1640 0 1640 -1635 0 -1635 0 0
-1640z m1538 678 c1 -13 8 -79 17 -148 8 -69 18 -150 20 -180 8 -93 27 -209
34 -208 18 2 24 -3 13 -11 -11 -7 -11 -9 1 -14 15 -6 17 9 5 29 -4 6 33 59 83
119 49 60 89 113 89 117 0 5 17 27 38 51 39 43 122 171 122 187 0 5 9 14 20
20 11 6 20 9 20 6 0 -3 39 8 87 25 48 16 88 29 89 29 1 0 16 -23 34 -50 l32
-50 -25 -38 c-13 -20 -36 -49 -50 -64 -14 -15 -63 -74 -109 -130 -45 -57 -105
-128 -133 -159 -27 -30 -85 -96 -127 -145 -164 -189 -245 -263 -270 -248 -6 4
-8 3 -4 -4 3 -6 -6 -19 -21 -29 -35 -24 -103 -21 -120 4 -7 10 -17 23 -22 30
-6 6 -13 30 -17 52 -4 22 -10 38 -15 35 -5 -3 -9 5 -9 16 0 26 -27 128 -40
152 -5 9 -13 36 -16 60 -4 24 -10 48 -14 53 -3 6 -6 26 -5 45 3 49 -13 90 -32
83 -13 -5 -13 -3 -4 15 7 13 9 52 4 111 l-6 90 32 30 c17 16 48 35 69 42 20 6
53 23 72 38 35 26 111 58 140 60 9 1 16 -8 18 -21z m1020 0 c1 -13 8 -79 17
-148 8 -69 18 -150 20 -180 8 -93 27 -209 34 -208 18 2 24 -3 13 -11 -11 -7
-11 -9 1 -14 15 -6 17 9 5 29 -4 6 33 59 83 119 49 60 89 113 89 117 0 5 17
27 38 51 39 43 122 171 122 187 0 5 9 14 20 20 11 6 20 9 20 6 0 -3 39 8 87
25 48 16 88 29 89 29 1 0 16 -23 34 -50 l32 -50 -25 -38 c-13 -20 -36 -49 -50
-64 -14 -15 -63 -74 -109 -130 -45 -57 -105 -128 -133 -159 -27 -30 -85 -96
-127 -145 -164 -189 -245 -263 -270 -248 -6 4 -8 3 -4 -4 3 -6 -6 -19 -21 -29
-35 -24 -103 -21 -120 4 -7 10 -17 23 -22 30 -6 6 -13 30 -17 52 -4 22 -10 38
-15 35 -5 -3 -9 5 -9 16 0 26 -27 128 -40 152 -5 9 -13 36 -16 60 -4 24 -10
48 -14 53 -3 6 -6 26 -5 45 3 49 -13 90 -32 83 -13 -5 -13 -3 -4 15 7 13 9 52
4 111 l-6 90 32 30 c17 16 48 35 69 42 20 6 53 23 72 38 35 26 111 58 140 60
9 1 16 -8 18 -21z m-1559 -45 c-35 -171 -79 -313 -126 -405 -18 -38 -31 -68
-27 -68 3 0 -2 -7 -10 -16 -9 -8 -16 -23 -16 -33 0 -9 -32 -49 -71 -87 -57
-58 -92 -81 -185 -128 -112 -56 -261 -104 -353 -114 -25 -2 -71 3 -108 13
l-63 17 20 32 c12 17 29 49 39 71 16 35 29 46 89 73 75 35 96 38 184 27 88
-12 126 20 223 185 25 41 45 81 45 88 0 8 6 28 14 45 13 28 21 74 30 170 7 73
124 154 231 160 33 2 67 4 76 5 14 2 15 -4 8 -35z"/>
<path d="M1482 2302 c-51 -25 -53 -29 -47 -57 4 -16 11 -55 16 -85 5 -30 11
-66 14 -80 3 -14 10 -79 16 -145 6 -66 24 -174 41 -240 17 -66 31 -130 32
-142 1 -16 9 -22 34 -25 31 -4 40 3 130 100 53 57 100 112 104 122 4 10 15 24
25 31 10 8 33 32 52 54 18 22 57 65 85 95 29 30 63 71 76 90 30 43 108 141
124 155 6 6 22 23 35 37 l24 27 -27 45 c-15 26 -29 46 -31 46 -3 0 -30 -38
-60 -85 -66 -102 -101 -147 -231 -296 -124 -142 -175 -205 -169 -211 3 -2 -15
-24 -40 -48 -25 -24 -47 -41 -50 -38 -7 7 -13 36 -25 131 -5 43 -12 83 -15 88
-4 5 -10 44 -15 87 -5 42 -14 106 -19 142 -6 36 -11 102 -11 148 0 45 -3 82
-7 81 -5 0 -32 -12 -61 -27z"/>
<path d="M2115 2299 c-3 -4 2 -6 10 -5 21 3 28 13 10 13 -9 0 -18 -4 -20 -8z"/>
<path d="M2046 2275 c-4 -13 -2 -14 14 -5 23 13 26 20 6 20 -8 0 -16 -7 -20
-15z"/>
<path d="M1371 2251 c-7 -5 -12 -14 -10 -20 2 -6 10 -2 17 9 14 22 13 23 -7
11z"/>
<path d="M1335 2231 c-3 -5 -1 -12 5 -16 5 -3 10 1 10 9 0 18 -6 21 -15 7z"/>
<path d="M1985 2230 c-3 -5 -1 -10 4 -10 6 0 11 5 11 10 0 6 -2 10 -4 10 -3 0
-8 -4 -11 -10z"/>
<path d="M1280 2200 c0 -5 5 -10 10 -10 6 0 10 5 10 10 0 6 -4 10 -10 10 -5 0
-10 -4 -10 -10z"/>
<path d="M1366 2191 c-4 -7 -5 -15 -2 -18 9 -9 19 4 14 18 -4 11 -6 11 -12 0z"/>
<path d="M1290 2169 c0 -5 5 -7 10 -4 6 3 10 8 10 11 0 2 -4 4 -10 4 -5 0 -10
-5 -10 -11z"/>
<path d="M1271 2154 c0 -11 3 -14 6 -6 3 7 2 16 -1 19 -3 4 -6 -2 -5 -13z"/>
<path d="M1385 2080 c-3 -5 -1 -10 4 -10 6 0 11 5 11 10 0 6 -2 10 -4 10 -3 0
-8 -4 -11 -10z"/>
<path d="M1929 2033 c-13 -15 -17 -22 -8 -15 9 6 19 10 22 7 4 -3 5 -2 2 2 -3
3 0 12 6 20 21 25 3 13 -22 -14z"/>
<path d="M1377 1939 c4 -13 8 -18 11 -10 2 7 -1 18 -6 23 -8 8 -9 4 -5 -13z"/>
<path d="M1739 1893 c-13 -16 -12 -17 4 -4 9 7 17 15 17 17 0 8 -8 3 -21 -13z"/>
<path d="M1310 1865 c0 -8 4 -15 10 -15 5 0 7 7 4 15 -4 8 -8 15 -10 15 -2 0
-4 -7 -4 -15z"/>
<path d="M1420 1854 c0 -8 5 -12 10 -9 6 4 8 11 5 16 -9 14 -15 11 -15 -7z"/>
<path d="M1734 1798 l-19 -23 23 19 c21 18 27 26 19 26 -2 0 -12 -10 -23 -22z"/>
<path d="M1460 1790 c0 -5 5 -10 10 -10 6 0 10 5 10 10 0 6 -4 10 -10 10 -5 0
-10 -4 -10 -10z"/>
<path d="M1384 1755 c0 -14 4 -25 8 -25 4 0 7 9 5 20 -5 29 -13 33 -13 5z"/>
<path d="M1670 1720 c-8 -5 -12 -12 -9 -15 4 -3 12 1 19 10 14 17 11 19 -10 5z"/>
<path d="M1495 1510 c-3 -5 -1 -10 4 -10 6 0 11 5 11 10 0 6 -2 10 -4 10 -3 0
-8 -4 -11 -10z"/>
<path d="M2502 2302 c-51 -25 -53 -29 -47 -57 4 -16 11 -55 16 -85 5 -30 11
-66 14 -80 3 -14 10 -79 16 -145 6 -66 24 -174 41 -240 17 -66 31 -130 32
-142 1 -16 9 -22 34 -25 31 -4 40 3 130 100 53 57 100 112 104 122 4 10 15 24
25 31 10 8 33 32 52 54 18 22 57 65 85 95 29 30 63 71 76 90 30 43 108 141
124 155 6 6 22 23 35 37 l24 27 -27 45 c-15 26 -29 46 -31 46 -3 0 -30 -38
-60 -85 -66 -102 -101 -147 -231 -296 -124 -142 -175 -205 -169 -211 3 -2 -15
-24 -40 -48 -25 -24 -47 -41 -50 -38 -7 7 -13 36 -25 131 -5 43 -12 83 -15 88
-4 5 -10 44 -15 87 -5 42 -14 106 -19 142 -6 36 -11 102 -11 148 0 45 -3 82
-7 81 -5 0 -32 -12 -61 -27z"/>
<path d="M3135 2299 c-3 -4 2 -6 10 -5 21 3 28 13 10 13 -9 0 -18 -4 -20 -8z"/>
<path d="M3066 2275 c-4 -13 -2 -14 14 -5 23 13 26 20 6 20 -8 0 -16 -7 -20
-15z"/>
<path d="M2391 2251 c-7 -5 -12 -14 -10 -20 2 -6 10 -2 17 9 14 22 13 23 -7
11z"/>
<path d="M2355 2231 c-3 -5 -1 -12 5 -16 5 -3 10 1 10 9 0 18 -6 21 -15 7z"/>
<path d="M3005 2230 c-3 -5 -1 -10 4 -10 6 0 11 5 11 10 0 6 -2 10 -4 10 -3 0
-8 -4 -11 -10z"/>
<path d="M2300 2200 c0 -5 5 -10 10 -10 6 0 10 5 10 10 0 6 -4 10 -10 10 -5 0
-10 -4 -10 -10z"/>
<path d="M2386 2191 c-4 -7 -5 -15 -2 -18 9 -9 19 4 14 18 -4 11 -6 11 -12 0z"/>
<path d="M2310 2169 c0 -5 5 -7 10 -4 6 3 10 8 10 11 0 2 -4 4 -10 4 -5 0 -10
-5 -10 -11z"/>
<path d="M2291 2154 c0 -11 3 -14 6 -6 3 7 2 16 -1 19 -3 4 -6 -2 -5 -13z"/>
<path d="M2405 2080 c-3 -5 -1 -10 4 -10 6 0 11 5 11 10 0 6 -2 10 -4 10 -3 0
-8 -4 -11 -10z"/>
<path d="M2949 2033 c-13 -15 -17 -22 -8 -15 9 6 19 10 22 7 4 -3 5 -2 2 2 -3
3 0 12 6 20 21 25 3 13 -22 -14z"/>
<path d="M2397 1939 c4 -13 8 -18 11 -10 2 7 -1 18 -6 23 -8 8 -9 4 -5 -13z"/>
<path d="M2759 1893 c-13 -16 -12 -17 4 -4 16 13 21 21 13 21 -2 0 -10 -8 -17
-17z"/>
<path d="M2330 1865 c0 -8 4 -15 10 -15 5 0 7 7 4 15 -4 8 -8 15 -10 15 -2 0
-4 -7 -4 -15z"/>
<path d="M2440 1854 c0 -8 5 -12 10 -9 6 4 8 11 5 16 -9 14 -15 11 -15 -7z"/>
<path d="M2754 1798 l-19 -23 23 19 c21 18 27 26 19 26 -2 0 -12 -10 -23 -22z"/>
<path d="M2480 1790 c0 -5 5 -10 10 -10 6 0 10 5 10 10 0 6 -4 10 -10 10 -5 0
-10 -4 -10 -10z"/>
<path d="M2404 1755 c0 -14 4 -25 8 -25 4 0 7 9 5 20 -5 29 -13 33 -13 5z"/>
<path d="M2690 1720 c-8 -5 -12 -12 -9 -15 4 -3 12 1 19 10 14 17 11 19 -10 5z"/>
<path d="M2515 1510 c-3 -5 -1 -10 4 -10 6 0 11 5 11 10 0 6 -2 10 -4 10 -3 0
-8 -4 -11 -10z"/>
<path d="M922 2302 c-28 -4 -37 -27 -50 -123 -6 -41 -20 -103 -33 -139 -12
-36 -25 -74 -29 -85 -4 -11 -14 -40 -22 -65 -9 -25 -21 -44 -28 -42 -6 1 -8
-2 -5 -9 9 -14 -59 -112 -93 -136 -77 -51 -239 -76 -308 -47 -29 12 -33 11
-51 -9 -12 -12 -28 -36 -37 -54 l-16 -32 56 -17 c37 -11 81 -15 133 -12 67 3
87 9 171 51 52 27 110 63 129 80 38 36 115 150 126 187 4 14 16 41 26 60 23
43 44 102 71 195 11 39 26 92 34 119 22 76 20 86 -18 83 -18 -1 -43 -3 -56 -5z"/>
<path d="M850 2270 c0 -11 5 -20 10 -20 6 0 10 9 10 20 0 11 -4 20 -10 20 -5
0 -10 -9 -10 -20z"/>
<path d="M810 2238 c0 -19 2 -20 10 -8 13 19 13 30 0 30 -5 0 -10 -10 -10 -22z"/>
<path d="M830 2140 c-9 -6 -10 -10 -3 -10 6 0 15 5 18 10 8 12 4 12 -15 0z"/>
<path d="M731 2094 c0 -11 3 -14 6 -6 3 7 2 16 -1 19 -3 4 -6 -2 -5 -13z"/>
<path d="M800 2100 c0 -5 5 -10 10 -10 6 0 10 5 10 10 0 6 -4 10 -10 10 -5 0
-10 -4 -10 -10z"/>
<path d="M795 2066 c-3 -9 -7 -23 -10 -31 -2 -8 -1 -15 4 -15 5 0 11 12 14 28
6 30 0 44 -8 18z"/>
<path d="M725 2050 c-3 -5 -2 -10 4 -10 5 0 13 5 16 10 3 6 2 10 -4 10 -5 0
-13 -4 -16 -10z"/>
<path d="M700 1980 c0 -5 7 -7 15 -4 8 4 15 8 15 10 0 2 -7 4 -15 4 -8 0 -15
-4 -15 -10z"/>
<path d="M685 1939 c-11 -17 1 -21 15 -4 8 9 8 15 2 15 -6 0 -14 -5 -17 -11z"/>
<path d="M720 1920 c-9 -6 -10 -10 -3 -10 6 0 15 5 18 10 8 12 4 12 -15 0z"/>
<path d="M720 1890 c-9 -6 -10 -10 -3 -10 6 0 15 5 18 10 8 12 4 12 -15 0z"/>
<path d="M722 1839 c-12 -21 -19 -39 -14 -39 8 0 45 70 40 76 -2 1 -14 -15
-26 -37z"/>
<path d="M679 1813 c-13 -16 -12 -17 4 -4 9 7 17 15 17 17 0 8 -8 3 -21 -13z"/>
<path d="M686 1773 c-6 -14 -5 -15 5 -6 7 7 10 15 7 18 -3 3 -9 -2 -12 -12z"/>
<path d="M590 1761 c-7 -15 -7 -21 0 -21 12 0 25 28 17 36 -3 3 -10 -4 -17
-15z"/>
<path d="M630 1745 c-14 -16 -10 -18 14 -9 9 3 16 10 16 15 0 14 -16 11 -30
-6z"/>
<path d="M544 1695 c-10 -8 -14 -15 -8 -15 6 0 17 7 24 15 16 19 9 19 -16 0z"/>
<path d="M186 1545 c-11 -8 -15 -15 -9 -15 19 0 43 12 43 21 0 13 -12 11 -34
-6z"/>
<path d="M129 1523 l-24 -28 28 24 c25 23 32 31 24 31 -2 0 -14 -12 -28 -27z"/>
<path d="M325 1510 c28 -12 47 -12 40 0 -3 6 -18 10 -33 9 -24 0 -25 -1 -7 -9z"/>
<path d="M161 1501 c-10 -6 -10 -10 -1 -16 13 -8 24 -1 19 14 -3 6 -10 7 -18
2z"/>
<path d="M428 1503 c7 -3 16 -2 19 1 4 3 -2 6 -13 5 -11 0 -14 -3 -6 -6z"/>
<path d="M198 1463 c7 -3 16 -2 19 1 4 3 -2 6 -13 5 -11 0 -14 -3 -6 -6z"/>
</g>
</svg>
